<svg width="185" height="36" viewBox="0 0 185 36" fill="none" xmlns="http://www.w3.org/2000/svg">
<g clip-path="url(#clip0_35009_484)">
<path fill-rule="evenodd" clip-rule="evenodd" d="M6.43307 2H25.5673C29.1053 2 32 4.89194 32 8.42664V27.5429C32 31.0776 29.1053 33.9695 25.5673 33.9695H6.43307C2.89472 33.9695 0 31.0776 0 27.5429V8.42664C0 4.89194 2.89472 2 6.43307 2Z" fill="url(#paint0_linear_35009_484)"/>
<path fill-rule="evenodd" clip-rule="evenodd" d="M9.24844 23.7577C5.72506 20.3997 3.5293 15.663 3.5293 10.4133C3.5293 10.1291 3.53626 9.84658 3.54949 9.56543L9.13531 10.0897C9.04306 15.2774 12.3492 20.0853 17.2103 22.0742V23.757H9.24844V23.7577Z" fill="url(#paint1_linear_35009_484)"/>
<path d="M13.713 17.9927V33.9999H7.76758V17.9927H13.713Z" fill="white"/>
<path d="M7.76862 17.9959C7.76862 15.307 8.86371 12.8633 10.6306 11.0977C12.4087 9.33375 14.8491 8.23828 17.5357 8.23828C20.2219 8.23828 22.661 9.33375 24.4296 11.0977C26.2053 12.8756 27.3021 15.3121 27.3021 17.9959C27.3021 20.6806 26.2053 23.1188 24.4397 24.8841C22.6725 26.6604 20.2264 27.7538 17.5347 27.7538C14.8422 27.7538 12.3961 26.6597 10.6299 24.8944C8.86267 23.1288 7.76758 20.6851 7.76758 17.9959H7.76862ZM14.8262 15.2892C14.1418 15.9837 13.7137 16.9408 13.7137 17.9959C13.7137 19.0513 14.1418 20.0084 14.8314 20.6974C15.5213 21.3867 16.4792 21.8141 17.5357 21.8141C18.5918 21.8141 19.5498 21.3867 20.2397 20.6974C20.9296 20.0139 21.3574 19.0554 21.3574 17.9959C21.3574 16.9377 20.9296 15.9782 20.2452 15.2892C19.556 14.6053 18.596 14.178 17.5364 14.178C16.4761 14.178 15.5164 14.6053 14.8269 15.2892H14.8262Z" fill="white"/>
<path d="M19.0871 27.6231C18.5834 27.7039 18.0641 27.7464 17.5378 27.7464C16.183 27.7464 14.8895 27.4676 13.7161 26.968V18.0381C13.73 19.074 14.1547 20.0126 14.8338 20.691C15.5234 21.38 16.4813 21.8074 17.5378 21.8074C18.0888 21.8074 18.6137 21.6896 19.0871 21.4814V27.6241V27.6231Z" fill="url(#paint2_linear_35009_484)"/>
</g>
<path d="M45.2117 10.8632V24.9998H48.4429V20.5568H50.5634C51.9568 20.5568 53.1282 20.0923 54.0773 19.1432C55.0265 18.194 55.5112 17.0631 55.5112 15.71C55.5112 14.3569 55.0265 13.226 54.0773 12.2768C53.1282 11.3277 51.9568 10.8632 50.5634 10.8632H45.2117ZM48.4429 17.5276V13.8924H50.5634C51.5529 13.8924 52.28 14.6801 52.28 15.71C52.28 16.74 51.5529 17.5276 50.5634 17.5276H48.4429Z" fill="#0F172A"/>
<path d="M59.8547 14.9022H56.8254V24.9998H59.8547V20.4357C59.8547 19.5269 60.1778 18.8806 60.8039 18.5171C61.4501 18.1334 62.1368 18.0123 62.884 18.1334V14.7003C61.5107 14.7003 60.2384 15.4071 59.8547 16.6996V14.9022Z" fill="#0F172A"/>
<path d="M73.8796 21.1627C73.9604 20.779 74.0008 20.3751 74.0008 19.951C74.0008 18.4363 73.5161 17.1641 72.5265 16.1543C71.5572 15.1243 70.3454 14.6195 68.8712 14.6195C67.296 14.6195 66.0035 15.1243 64.9937 16.1543C64.0042 17.1641 63.4993 18.4363 63.4993 19.951C63.4993 21.4858 64.0042 22.7581 65.0139 23.7679C66.0439 24.7776 67.397 25.2825 69.0933 25.2825C71.0321 25.2825 72.5063 24.5959 73.4959 23.2024L71.0725 21.8089C70.608 22.3138 69.9617 22.5763 69.1337 22.5763C67.8614 22.5763 67.0536 22.1119 66.7103 21.1627H73.8796ZM66.6497 18.9008C66.9527 17.8305 67.6797 17.3054 68.851 17.3054C69.9819 17.3054 70.6888 17.8305 70.9917 18.9008H66.6497Z" fill="#0F172A"/>
<path d="M78.7482 24.9998V10.2573H75.7189V24.9998H78.7482Z" fill="#0F172A"/>
<path d="M88.2958 15.8514C87.5889 15.0234 86.5792 14.6195 85.2867 14.6195C83.9538 14.6195 82.8229 15.1445 81.8737 16.1745C80.9245 17.2044 80.46 18.4565 80.46 19.951C80.46 21.4454 80.9245 22.7177 81.8737 23.7477C82.8229 24.7776 83.9538 25.2825 85.2867 25.2825C86.5792 25.2825 87.5889 24.8786 88.2958 24.0506V24.9998H91.325V14.9022H88.2958V15.8514ZM84.1558 21.7483C83.7115 21.3041 83.4893 20.6982 83.4893 19.951C83.4893 19.2038 83.7115 18.5979 84.1558 18.1536C84.6 17.7093 85.1857 17.4872 85.8925 17.4872C86.5994 17.4872 87.185 17.7093 87.6293 18.1536C88.0736 18.5979 88.2958 19.2038 88.2958 19.951C88.2958 20.6982 88.0736 21.3041 87.6293 21.7483C87.185 22.1926 86.5994 22.4148 85.8925 22.4148C85.1857 22.4148 84.6 22.1926 84.1558 21.7483Z" fill="#0F172A"/>
<path d="M100.07 20.4155C100.07 21.7887 99.3434 22.4956 98.1923 22.4956C97.1624 22.4956 96.4353 21.8493 96.4353 20.6578V14.9022H93.4061V21.1021C93.4061 22.4148 93.7696 23.4245 94.4764 24.1718C95.2034 24.919 96.1122 25.2825 97.1826 25.2825C98.4952 25.2825 99.4646 24.8786 100.07 24.0506V24.9998H103.1V14.9022H100.07V20.4155Z" fill="#0F172A"/>
<path d="M111.239 14.6195C109.926 14.6195 108.956 15.0234 108.351 15.8514V14.9022H105.321V24.9998H108.351V19.4865C108.351 18.1132 109.078 17.4064 110.229 17.4064C111.259 17.4064 111.986 18.0526 111.986 19.2442V24.9998H115.015V18.7999C115.015 17.4872 114.651 16.4774 113.924 15.7302C113.218 14.983 112.309 14.6195 111.239 14.6195Z" fill="#0F172A"/>
<path d="M121.942 25.2825C123.901 25.2825 125.618 24.2727 126.506 22.6773L123.861 21.1627C123.517 21.9099 122.851 22.2936 121.902 22.2936C120.589 22.2936 119.62 21.3243 119.62 19.951C119.62 18.5777 120.589 17.6083 121.902 17.6083C122.851 17.6083 123.497 17.9921 123.861 18.7393L126.506 17.2044C125.618 15.6494 123.881 14.6195 121.942 14.6195C120.407 14.6195 119.135 15.1243 118.105 16.1543C117.095 17.1843 116.59 18.4363 116.59 19.951C116.59 21.4656 117.095 22.7177 118.105 23.7477C119.135 24.7776 120.407 25.2825 121.942 25.2825Z" fill="#0F172A"/>
<path d="M133.642 14.6195C132.33 14.6195 131.36 15.0234 130.755 15.8514V10.8632H127.725V24.9998H130.755V19.4865C130.755 18.1132 131.482 17.4064 132.633 17.4064C133.663 17.4064 134.39 18.0526 134.39 19.2442V24.9998H137.419V18.7999C137.419 17.4872 137.055 16.4774 136.328 15.7302C135.622 14.983 134.713 14.6195 133.642 14.6195Z" fill="#0F172A"/>
<path d="M142.569 24.717C143.316 23.9698 143.316 22.7581 142.569 22.0109C141.822 21.2637 140.61 21.2637 139.863 22.0109C139.116 22.7581 139.116 23.9698 139.863 24.717C140.61 25.4643 141.822 25.4643 142.569 24.717Z" fill="#0F172A"/>
<path d="M149.198 25.2825C151.157 25.2825 152.873 24.2727 153.762 22.6773L151.116 21.1627C150.773 21.9099 150.106 22.2936 149.157 22.2936C147.845 22.2936 146.875 21.3243 146.875 19.951C146.875 18.5777 147.845 17.6083 149.157 17.6083C150.106 17.6083 150.753 17.9921 151.116 18.7393L153.762 17.2044C152.873 15.6494 151.136 14.6195 149.198 14.6195C147.663 14.6195 146.39 15.1243 145.361 16.1543C144.351 17.1843 143.846 18.4363 143.846 19.951C143.846 21.4656 144.351 22.7177 145.361 23.7477C146.39 24.7776 147.663 25.2825 149.198 25.2825Z" fill="#0F172A"/>
<path d="M163.427 23.7477C164.457 22.7177 164.982 21.4454 164.982 19.951C164.982 18.4565 164.457 17.2044 163.427 16.1745C162.397 15.1445 161.125 14.6195 159.63 14.6195C158.136 14.6195 156.864 15.1445 155.834 16.1745C154.804 17.2044 154.279 18.4565 154.279 19.951C154.279 21.4454 154.804 22.7177 155.834 23.7477C156.864 24.7776 158.136 25.2825 159.63 25.2825C161.125 25.2825 162.397 24.7776 163.427 23.7477ZM157.974 21.6676C157.53 21.2233 157.308 20.6578 157.308 19.951C157.308 19.2442 157.53 18.6787 157.974 18.2344C158.419 17.7901 158.964 17.568 159.63 17.568C160.297 17.568 160.842 17.7901 161.286 18.2344C161.731 18.6787 161.953 19.2442 161.953 19.951C161.953 20.6578 161.731 21.2233 161.286 21.6676C160.842 22.1119 160.297 22.334 159.63 22.334C158.964 22.334 158.419 22.1119 157.974 21.6676Z" fill="#0F172A"/>
<path d="M178.005 14.6195C176.672 14.6195 175.703 15.0638 175.077 15.9523C174.491 15.0638 173.602 14.6195 172.431 14.6195C171.179 14.6195 170.27 15.0638 169.725 15.8312V14.9022H166.696V24.9998H169.725V19.3047C169.725 18.1132 170.311 17.4064 171.3 17.4064C172.249 17.4064 172.754 18.0324 172.754 19.0624V24.9998H175.783V19.3047C175.783 18.1132 176.369 17.4064 177.359 17.4064C178.308 17.4064 178.813 18.0324 178.813 19.0624V24.9998H181.842V18.7999C181.842 17.5276 181.499 16.5178 180.792 15.7706C180.085 15.0032 179.156 14.6195 178.005 14.6195Z" fill="#0F172A"/>
<defs>
<linearGradient id="paint0_linear_35009_484" x1="3.20557" y1="2.87357" x2="24.0809" y2="26.1002" gradientUnits="userSpaceOnUse">
<stop stop-color="#5CEBDA"/>
<stop offset="1" stop-color="#099484"/>
</linearGradient>
<linearGradient id="paint1_linear_35009_484" x1="11.2245" y1="13.3487" x2="3.53457" y2="10.7892" gradientUnits="userSpaceOnUse">
<stop stop-color="#097568"/>
<stop offset="0.145098" stop-color="#84BAB3"/>
<stop offset="0.560784" stop-color="white"/>
<stop offset="1" stop-color="white"/>
</linearGradient>
<linearGradient id="paint2_linear_35009_484" x1="12.6192" y1="23.0867" x2="18.175" y2="23.5986" gradientUnits="userSpaceOnUse">
<stop stop-color="#099484"/>
<stop offset="1" stop-color="#FEFEFE"/>
</linearGradient>
<clipPath id="clip0_35009_484">
<rect width="32" height="32" fill="white" transform="translate(0 2)"/>
</clipPath>
</defs>
</svg>
